<svg xmlns="http://www.w3.org/2000/svg" viewBox="0 0 24 16" width="24" height="16" shape-rendering="crispEdges" role="img" aria-labelledby="t">
  <title id="t">Marcador vivo NUD — feliz — estado dia</title>
  <rect x="2" y="4" width="5" height="1" fill="#642DA4"></rect>
  <rect x="17" y="4" width="5" height="1" fill="#642DA4"></rect>
  <rect x="2" y="5" width="5" height="1" fill="#642DA4"></rect>
  <rect x="17" y="5" width="5" height="1" fill="#642DA4"></rect>
  <rect x="2" y="6" width="2" height="1" fill="#642DA4"></rect>
  <rect x="9" y="6" width="6" height="1" fill="#993700"></rect>
  <rect x="20" y="6" width="2" height="1" fill="#642DA4"></rect>
  <rect x="2" y="7" width="2" height="1" fill="#642DA4"></rect>
  <rect x="9" y="7" width="6" height="1" fill="#993700"></rect>
  <rect x="20" y="7" width="2" height="1" fill="#642DA4"></rect>
  <rect x="2" y="8" width="2" height="1" fill="#642DA4"></rect>
  <rect x="9" y="8" width="6" height="1" fill="#993700"></rect>
  <rect x="20" y="8" width="2" height="1" fill="#642DA4"></rect>
  <rect x="2" y="9" width="2" height="1" fill="#642DA4"></rect>
  <rect x="20" y="9" width="2" height="1" fill="#642DA4"></rect>
  <rect x="2" y="10" width="5" height="1" fill="#642DA4"></rect>
  <rect x="17" y="10" width="5" height="1" fill="#642DA4"></rect>
  <rect x="2" y="11" width="5" height="1" fill="#642DA4"></rect>
  <rect x="17" y="11" width="5" height="1" fill="#642DA4"></rect>
</svg>