<svg xmlns="http://www.w3.org/2000/svg" viewBox="0 0 1280 420" width="1280" height="420" role="img" aria-label="mascotes NUD para o Codex">
<defs><linearGradient id="bg" x1="0" y1="0" x2="0" y2="1"><stop offset="0" stop-color="#17141D"/><stop offset="1" stop-color="#22202A"/></linearGradient></defs>
<rect width="1280" height="420" fill="url(#bg)"/><circle cx="338" cy="226" r="1.3" fill="#7D6EB0" opacity="0.28"/><circle cx="792" cy="54" r="0.8" fill="#7D6EB0" opacity="0.34"/><circle cx="363" cy="114" r="2.2" fill="#7D6EB0" opacity="0.24"/><circle cx="1039" cy="201" r="1.7" fill="#7D6EB0" opacity="0.16"/><circle cx="803" cy="342" r="1.5" fill="#7D6EB0" opacity="0.31"/><circle cx="846" cy="53" r="1.9" fill="#7D6EB0" opacity="0.27"/><circle cx="412" cy="41" r="2.0" fill="#7D6EB0" opacity="0.24"/><circle cx="901" cy="346" r="1.8" fill="#7D6EB0" opacity="0.36"/><circle cx="522" cy="318" r="1.4" fill="#7D6EB0" opacity="0.36"/><circle cx="1088" cy="65" r="1.0" fill="#7D6EB0" opacity="0.18"/><circle cx="1190" cy="187" r="1.7" fill="#7D6EB0" opacity="0.20"/><circle cx="653" cy="169" r="1.3" fill="#7D6EB0" opacity="0.27"/><circle cx="744" cy="356" r="1.8" fill="#7D6EB0" opacity="0.36"/><circle cx="1062" cy="387" r="1.7" fill="#7D6EB0" opacity="0.16"/><circle cx="1067" cy="377" r="2.1" fill="#7D6EB0" opacity="0.27"/><circle cx="895" cy="106" r="2.0" fill="#7D6EB0" opacity="0.27"/><circle cx="393" cy="53" r="2.0" fill="#7D6EB0" opacity="0.38"/><circle cx="164" cy="318" r="1.4" fill="#7D6EB0" opacity="0.16"/><circle cx="404" cy="307" r="2.0" fill="#7D6EB0" opacity="0.13"/><circle cx="779" cy="46" r="1.8" fill="#7D6EB0" opacity="0.21"/><circle cx="1091" cy="383" r="1.5" fill="#7D6EB0" opacity="0.38"/><circle cx="422" cy="58" r="1.6" fill="#7D6EB0" opacity="0.13"/>
<text x="90" y="150" font-family="ui-monospace,Menlo,Consolas,monospace" font-size="20" fill="#B57BFF" letter-spacing="2">NUD [<tspan fill="#D97757">·</tspan>]</text>
<text x="86" y="232" font-family="ui-monospace,Menlo,Consolas,monospace" font-size="72" font-weight="700" fill="#E9E6F1">mascotes</text>
<text x="90" y="286" font-family="ui-monospace,Menlo,Consolas,monospace" font-size="18" fill="#B6B0C8">five mascots for the Codex</text>
<text x="90" y="312" font-family="ui-monospace,Menlo,Consolas,monospace" font-size="18" fill="#B6B0C8">pixel art · night</text>
<svg x="470" y="141" width="118" height="118" viewBox="0 0 32 32"><title id="t">Alien NUD acordado — 32×32, estado noite</title>
  <rect x="15" y="2" width="2" height="1" fill="#FF8A5C"></rect>
  <rect x="14" y="3" width="4" height="1" fill="#FF8A5C"></rect>
  <rect x="14" y="4" width="4" height="1" fill="#FF8A5C"></rect>
  <rect x="15" y="5" width="2" height="1" fill="#FF8A5C"></rect>
  <rect x="15" y="6" width="2" height="1" fill="#FF8A5C"></rect>
  <rect x="15" y="7" width="2" height="1" fill="#FF8A5C"></rect>
  <rect x="15" y="8" width="2" height="1" fill="#FF8A5C"></rect>
  <rect x="15" y="9" width="2" height="1" fill="#FF8A5C"></rect>
  <rect x="15" y="10" width="2" height="1" fill="#FF8A5C"></rect>
  <rect x="15" y="11" width="2" height="1" fill="#FF8A5C"></rect>
  <rect x="12" y="13" width="9" height="1" fill="#C8A2FF"></rect>
  <rect x="10" y="14" width="2" height="1" fill="#C8A2FF"></rect>
  <rect x="12" y="14" width="9" height="1" fill="#0E0C14"></rect>
  <rect x="21" y="14" width="2" height="1" fill="#C8A2FF"></rect>
  <rect x="9" y="15" width="1" height="1" fill="#C8A2FF"></rect>
  <rect x="10" y="15" width="13" height="1" fill="#0E0C14"></rect>
  <rect x="23" y="15" width="1" height="1" fill="#C8A2FF"></rect>
  <rect x="8" y="16" width="1" height="1" fill="#C8A2FF"></rect>
  <rect x="9" y="16" width="15" height="1" fill="#0E0C14"></rect>
  <rect x="24" y="16" width="1" height="1" fill="#C8A2FF"></rect>
  <rect x="8" y="17" width="1" height="1" fill="#C8A2FF"></rect>
  <rect x="9" y="17" width="3" height="1" fill="#0E0C14"></rect>
  <rect x="12" y="17" width="3" height="1" fill="#C8A2FF"></rect>
  <rect x="15" y="17" width="3" height="1" fill="#0E0C14"></rect>
  <rect x="18" y="17" width="3" height="1" fill="#C8A2FF"></rect>
  <rect x="21" y="17" width="3" height="1" fill="#0E0C14"></rect>
  <rect x="24" y="17" width="1" height="1" fill="#C8A2FF"></rect>
  <rect x="7" y="18" width="1" height="1" fill="#C8A2FF"></rect>
  <rect x="8" y="18" width="4" height="1" fill="#0E0C14"></rect>
  <rect x="12" y="18" width="3" height="1" fill="#C8A2FF"></rect>
  <rect x="15" y="18" width="3" height="1" fill="#0E0C14"></rect>
  <rect x="18" y="18" width="3" height="1" fill="#C8A2FF"></rect>
  <rect x="21" y="18" width="4" height="1" fill="#0E0C14"></rect>
  <rect x="25" y="18" width="1" height="1" fill="#C8A2FF"></rect>
  <rect x="7" y="19" width="1" height="1" fill="#C8A2FF"></rect>
  <rect x="8" y="19" width="4" height="1" fill="#0E0C14"></rect>
  <rect x="12" y="19" width="3" height="1" fill="#C8A2FF"></rect>
  <rect x="15" y="19" width="3" height="1" fill="#0E0C14"></rect>
  <rect x="18" y="19" width="3" height="1" fill="#C8A2FF"></rect>
  <rect x="21" y="19" width="4" height="1" fill="#0E0C14"></rect>
  <rect x="25" y="19" width="1" height="1" fill="#C8A2FF"></rect>
  <rect x="7" y="20" width="1" height="1" fill="#C8A2FF"></rect>
  <rect x="8" y="20" width="17" height="1" fill="#0E0C14"></rect>
  <rect x="25" y="20" width="1" height="1" fill="#C8A2FF"></rect>
  <rect x="7" y="21" width="1" height="1" fill="#C8A2FF"></rect>
  <rect x="8" y="21" width="17" height="1" fill="#0E0C14"></rect>
  <rect x="25" y="21" width="1" height="1" fill="#C8A2FF"></rect>
  <rect x="7" y="22" width="1" height="1" fill="#C8A2FF"></rect>
  <rect x="8" y="22" width="17" height="1" fill="#0E0C14"></rect>
  <rect x="25" y="22" width="1" height="1" fill="#C8A2FF"></rect>
  <rect x="7" y="23" width="1" height="1" fill="#C8A2FF"></rect>
  <rect x="8" y="23" width="17" height="1" fill="#0E0C14"></rect>
  <rect x="25" y="23" width="1" height="1" fill="#C8A2FF"></rect>
  <rect x="7" y="24" width="1" height="1" fill="#C8A2FF"></rect>
  <rect x="8" y="24" width="4" height="1" fill="#0E0C14"></rect>
  <rect x="12" y="24" width="2" height="1" fill="#C8A2FF"></rect>
  <rect x="14" y="24" width="4" height="1" fill="#0E0C14"></rect>
  <rect x="18" y="24" width="2" height="1" fill="#C8A2FF"></rect>
  <rect x="20" y="24" width="4" height="1" fill="#0E0C14"></rect>
  <rect x="24" y="24" width="2" height="1" fill="#C8A2FF"></rect>
  <rect x="8" y="25" width="1" height="1" fill="#C8A2FF"></rect>
  <rect x="9" y="25" width="2" height="1" fill="#0E0C14"></rect>
  <rect x="11" y="25" width="1" height="1" fill="#C8A2FF"></rect>
  <rect x="14" y="25" width="1" height="1" fill="#C8A2FF"></rect>
  <rect x="15" y="25" width="2" height="1" fill="#0E0C14"></rect>
  <rect x="17" y="25" width="1" height="1" fill="#C8A2FF"></rect>
  <rect x="20" y="25" width="1" height="1" fill="#C8A2FF"></rect>
  <rect x="21" y="25" width="2" height="1" fill="#0E0C14"></rect>
  <rect x="23" y="25" width="1" height="1" fill="#C8A2FF"></rect>
  <rect x="9" y="26" width="2" height="1" fill="#C8A2FF"></rect>
  <rect x="15" y="26" width="2" height="1" fill="#C8A2FF"></rect>
  <rect x="21" y="26" width="2" height="1" fill="#C8A2FF"></rect></svg><text x="529" y="289" text-anchor="middle" font-family="ui-monospace,Menlo,Consolas,monospace" font-size="17" fill="#E9E6F1">alien</text><svg x="630" y="141" width="118" height="118" viewBox="0 0 32 32"><title id="ttl">TARS — cérebro-nebulosa — mascote NUD, estado noite</title>
  <rect x="15" y="3" width="1" height="1" fill="#B57BFF"></rect>
  <rect x="17" y="3" width="1" height="1" fill="#B57BFF"></rect>
  <rect x="14" y="4" width="1" height="1" fill="#B57BFF"></rect>
  <rect x="15" y="4" width="1" height="1" fill="#C8A2FF"></rect>
  <rect x="16" y="4" width="1" height="1" fill="#9C91B6"></rect>
  <rect x="17" y="4" width="2" height="1" fill="#B57BFF"></rect>
  <rect x="13" y="5" width="1" height="1" fill="#C8A2FF"></rect>
  <rect x="14" y="5" width="2" height="1" fill="#E0CCFF"></rect>
  <rect x="16" y="5" width="1" height="1" fill="#9C91B6"></rect>
  <rect x="17" y="5" width="2" height="1" fill="#C8A2FF"></rect>
  <rect x="19" y="5" width="1" height="1" fill="#B57BFF"></rect>
  <rect x="8" y="6" width="1" height="1" fill="#B57BFF"></rect>
  <rect x="10" y="6" width="1" height="1" fill="#B57BFF"></rect>
  <rect x="12" y="6" width="1" height="1" fill="#B57BFF"></rect>
  <rect x="13" y="6" width="2" height="1" fill="#E0CCFF"></rect>
  <rect x="15" y="6" width="2" height="1" fill="#9C91B6"></rect>
  <rect x="17" y="6" width="1" height="1" fill="#C8A2FF"></rect>
  <rect x="18" y="6" width="1" height="1" fill="#9C91B6"></rect>
  <rect x="19" y="6" width="2" height="1" fill="#B57BFF"></rect>
  <rect x="22" y="6" width="1" height="1" fill="#B57BFF"></rect>
  <rect x="24" y="6" width="1" height="1" fill="#B57BFF"></rect>
  <rect x="7" y="7" width="1" height="1" fill="#B57BFF"></rect>
  <rect x="8" y="7" width="1" height="1" fill="#C8A2FF"></rect>
  <rect x="9" y="7" width="2" height="1" fill="#E0CCFF"></rect>
  <rect x="11" y="7" width="2" height="1" fill="#C8A2FF"></rect>
  <rect x="13" y="7" width="4" height="1" fill="#E0CCFF"></rect>
  <rect x="17" y="7" width="1" height="1" fill="#9C91B6"></rect>
  <rect x="18" y="7" width="2" height="1" fill="#C8A2FF"></rect>
  <rect x="20" y="7" width="2" height="1" fill="#E0CCFF"></rect>
  <rect x="22" y="7" width="1" height="1" fill="#C8A2FF"></rect>
  <rect x="23" y="7" width="1" height="1" fill="#9C91B6"></rect>
  <rect x="24" y="7" width="2" height="1" fill="#B57BFF"></rect>
  <rect x="8" y="8" width="2" height="1" fill="#E0CCFF"></rect>
  <rect x="10" y="8" width="1" height="1" fill="#9C91B6"></rect>
  <rect x="11" y="8" width="3" height="1" fill="#C8A2FF"></rect>
  <rect x="14" y="8" width="2" height="1" fill="#E0CCFF"></rect>
  <rect x="16" y="8" width="1" height="1" fill="#C8A2FF"></rect>
  <rect x="17" y="8" width="1" height="1" fill="#9C91B6"></rect>
  <rect x="18" y="8" width="1" height="1" fill="#C8A2FF"></rect>
  <rect x="19" y="8" width="3" height="1" fill="#E0CCFF"></rect>
  <rect x="22" y="8" width="1" height="1" fill="#9C91B6"></rect>
  <rect x="23" y="8" width="1" height="1" fill="#C8A2FF"></rect>
  <rect x="24" y="8" width="1" height="1" fill="#B57BFF"></rect>
  <rect x="7" y="9" width="1" height="1" fill="#C8A2FF"></rect>
  <rect x="8" y="9" width="1" height="1" fill="#E0CCFF"></rect>
  <rect x="9" y="9" width="1" height="1" fill="#9C91B6"></rect>
  <rect x="10" y="9" width="1" height="1" fill="#E0CCFF"></rect>
  <rect x="11" y="9" width="3" height="1" fill="#C8A2FF"></rect>
  <rect x="14" y="9" width="2" height="1" fill="#E0CCFF"></rect>
  <rect x="16" y="9" width="1" height="1" fill="#C8A2FF"></rect>
  <rect x="17" y="9" width="1" height="1" fill="#9C91B6"></rect>
  <rect x="18" y="9" width="1" height="1" fill="#C8A2FF"></rect>
  <rect x="19" y="9" width="3" height="1" fill="#E0CCFF"></rect>
  <rect x="22" y="9" width="2" height="1" fill="#C8A2FF"></rect>
  <rect x="24" y="9" width="1" height="1" fill="#9C91B6"></rect>
  <rect x="25" y="9" width="1" height="1" fill="#B57BFF"></rect>
  <rect x="6" y="10" width="1" height="1" fill="#B57BFF"></rect>
  <rect x="7" y="10" width="1" height="1" fill="#C8A2FF"></rect>
  <rect x="8" y="10" width="1" height="1" fill="#9C91B6"></rect>
  <rect x="9" y="10" width="1" height="1" fill="#E0CCFF"></rect>
  <rect x="10" y="10" width="3" height="1" fill="#C8A2FF"></rect>
  <rect x="13" y="10" width="4" height="1" fill="#E0CCFF"></rect>
  <rect x="17" y="10" width="1" height="1" fill="#9C91B6"></rect>
  <rect x="18" y="10" width="2" height="1" fill="#C8A2FF"></rect>
  <rect x="20" y="10" width="1" height="1" fill="#E0CCFF"></rect>
  <rect x="21" y="10" width="2" height="1" fill="#C8A2FF"></rect>
  <rect x="23" y="10" width="1" height="1" fill="#9C91B6"></rect>
  <rect x="24" y="10" width="1" height="1" fill="#C8A2FF"></rect>
  <rect x="25" y="10" width="2" height="1" fill="#B57BFF"></rect>
  <rect x="7" y="11" width="1" height="1" fill="#B57BFF"></rect>
  <rect x="8" y="11" width="2" height="1" fill="#C8A2FF"></rect>
  <rect x="10" y="11" width="7" height="1" fill="#E0CCFF"></rect>
  <rect x="17" y="11" width="1" height="1" fill="#9C91B6"></rect>
  <rect x="18" y="11" width="6" height="1" fill="#C8A2FF"></rect>
  <rect x="24" y="11" width="2" height="1" fill="#B57BFF"></rect>
  <rect x="6" y="12" width="2" height="1" fill="#E0CCFF"></rect>
  <rect x="8" y="12" width="2" height="1" fill="#C8A2FF"></rect>
  <rect x="10" y="12" width="3" height="1" fill="#E0CCFF"></rect>
  <rect x="13" y="12" width="1" height="1" fill="#C8A2FF"></rect>
  <rect x="14" y="12" width="2" height="1" fill="#E0CCFF"></rect>
  <rect x="16" y="12" width="1" height="1" fill="#9C91B6"></rect>
  <rect x="17" y="12" width="2" height="1" fill="#C8A2FF"></rect>
  <rect x="19" y="12" width="1" height="1" fill="#E0CCFF"></rect>
  <rect x="20" y="12" width="3" height="1" fill="#C8A2FF"></rect>
  <rect x="23" y="12" width="1" height="1" fill="#E0CCFF"></rect>
  <rect x="24" y="12" width="2" height="1" fill="#C8A2FF"></rect>
  <rect x="26" y="12" width="1" height="1" fill="#B57BFF"></rect>
  <rect x="5" y="13" width="1" height="1" fill="#C8A2FF"></rect>
  <rect x="6" y="13" width="3" height="1" fill="#E0CCFF"></rect>
  <rect x="9" y="13" width="1" height="1" fill="#C8A2FF"></rect>
  <rect x="10" y="13" width="3" height="1" fill="#E0CCFF"></rect>
  <rect x="13" y="13" width="3" height="1" fill="#C8A2FF"></rect>
  <rect x="16" y="13" width="1" height="1" fill="#9C91B6"></rect>
  <rect x="17" y="13" width="2" height="1" fill="#C8A2FF"></rect>
  <rect x="19" y="13" width="1" height="1" fill="#E0CCFF"></rect>
  <rect x="20" y="13" width="3" height="1" fill="#C8A2FF"></rect>
  <rect x="23" y="13" width="2" height="1" fill="#E0CCFF"></rect>
  <rect x="25" y="13" width="1" height="1" fill="#C8A2FF"></rect>
  <rect x="26" y="13" width="1" height="1" fill="#9C91B6"></rect>
  <rect x="27" y="13" width="1" height="1" fill="#B57BFF"></rect>
  <rect x="4" y="14" width="1" height="1" fill="#B57BFF"></rect>
  <rect x="5" y="14" width="1" height="1" fill="#C8A2FF"></rect>
  <rect x="6" y="14" width="1" height="1" fill="#E0CCFF"></rect>
  <rect x="7" y="14" width="1" height="1" fill="#9C91B6"></rect>
  <rect x="8" y="14" width="3" height="1" fill="#C8A2FF"></rect>
  <rect x="11" y="14" width="1" height="1" fill="#E0CCFF"></rect>
  <rect x="12" y="14" width="6" height="1" fill="#C8A2FF"></rect>
  <rect x="18" y="14" width="2" height="1" fill="#E0CCFF"></rect>
  <rect x="20" y="14" width="3" height="1" fill="#C8A2FF"></rect>
  <rect x="23" y="14" width="2" height="1" fill="#E0CCFF"></rect>
  <rect x="25" y="14" width="1" height="1" fill="#9C91B6"></rect>
  <rect x="26" y="14" width="1" height="1" fill="#C8A2FF"></rect>
  <rect x="27" y="14" width="2" height="1" fill="#B57BFF"></rect>
  <rect x="5" y="15" width="1" height="1" fill="#C8A2FF"></rect>
  <rect x="6" y="15" width="1" height="1" fill="#9C91B6"></rect>
  <rect x="7" y="15" width="6" height="1" fill="#C8A2FF"></rect>
  <rect x="13" y="15" width="2" height="1" fill="#E9E6F1"></rect>
  <rect x="15" y="15" width="8" height="1" fill="#C8A2FF"></rect>
  <rect x="23" y="15" width="1" height="1" fill="#E0CCFF"></rect>
  <rect x="24" y="15" width="3" height="1" fill="#C8A2FF"></rect>
  <rect x="27" y="15" width="1" height="1" fill="#9C91B6"></rect>
  <rect x="4" y="16" width="2" height="1" fill="#B57BFF"></rect>
  <rect x="6" y="16" width="6" height="1" fill="#C8A2FF"></rect>
  <rect x="12" y="16" width="4" height="1" fill="#E9E6F1"></rect>
  <rect x="16" y="16" width="1" height="1" fill="#E0CCFF"></rect>
  <rect x="17" y="16" width="9" height="1" fill="#C8A2FF"></rect>
  <rect x="26" y="16" width="1" height="1" fill="#9C91B6"></rect>
  <rect x="27" y="16" width="2" height="1" fill="#B57BFF"></rect>
  <rect x="5" y="17" width="2" height="1" fill="#B57BFF"></rect>
  <rect x="7" y="17" width="1" height="1" fill="#9C91B6"></rect>
  <rect x="8" y="17" width="2" height="1" fill="#B57BFF"></rect>
  <rect x="10" y="17" width="1" height="1" fill="#C8A2FF"></rect>
  <rect x="11" y="17" width="2" height="1" fill="#E9E6F1"></rect>
  <rect x="13" y="17" width="2" height="1" fill="#FF8A5C"></rect>
  <rect x="15" y="17" width="2" height="1" fill="#E9E6F1"></rect>
  <rect x="17" y="17" width="4" height="1" fill="#C8A2FF"></rect>
  <rect x="21" y="17" width="1" height="1" fill="#B57BFF"></rect>
  <rect x="22" y="17" width="3" height="1" fill="#C8A2FF"></rect>
  <rect x="25" y="17" width="1" height="1" fill="#9C91B6"></rect>
  <rect x="26" y="17" width="2" height="1" fill="#B57BFF"></rect>
  <rect x="6" y="18" width="1" height="1" fill="#B57BFF"></rect>
  <rect x="8" y="18" width="1" height="1" fill="#B57BFF"></rect>
  <rect x="9" y="18" width="2" height="1" fill="#E0CCFF"></rect>
  <rect x="11" y="18" width="2" height="1" fill="#E9E6F1"></rect>
  <rect x="13" y="18" width="2" height="1" fill="#FF8A5C"></rect>
  <rect x="15" y="18" width="2" height="1" fill="#E9E6F1"></rect>
  <rect x="17" y="18" width="3" height="1" fill="#C8A2FF"></rect>
  <rect x="20" y="18" width="1" height="1" fill="#E0CCFF"></rect>
  <rect x="21" y="18" width="2" height="1" fill="#C8A2FF"></rect>
  <rect x="23" y="18" width="1" height="1" fill="#B57BFF"></rect>
  <rect x="24" y="18" width="1" height="1" fill="#9C91B6"></rect>
  <rect x="25" y="18" width="2" height="1" fill="#B57BFF"></rect>
  <rect x="9" y="19" width="2" height="1" fill="#E0CCFF"></rect>
  <rect x="11" y="19" width="1" height="1" fill="#9C91B6"></rect>
  <rect x="12" y="19" width="3" height="1" fill="#E9E6F1"></rect>
  <rect x="15" y="19" width="1" height="1" fill="#E0CCFF"></rect>
  <rect x="16" y="19" width="1" height="1" fill="#C8A2FF"></rect>
  <rect x="17" y="19" width="1" height="1" fill="#9C91B6"></rect>
  <rect x="18" y="19" width="1" height="1" fill="#C8A2FF"></rect>
  <rect x="19" y="19" width="3" height="1" fill="#E0CCFF"></rect>
  <rect x="22" y="19" width="1" height="1" fill="#C8A2FF"></rect>
  <rect x="23" y="19" width="3" height="1" fill="#B57BFF"></rect>
  <rect x="8" y="20" width="2" height="1" fill="#C8A2FF"></rect>
  <rect x="10" y="20" width="1" height="1" fill="#9C91B6"></rect>
  <rect x="11" y="20" width="2" height="1" fill="#C8A2FF"></rect>
  <rect x="13" y="20" width="2" height="1" fill="#E9E6F1"></rect>
  <rect x="15" y="20" width="1" height="1" fill="#C8A2FF"></rect>
  <rect x="16" y="20" width="1" height="1" fill="#9C91B6"></rect>
  <rect x="17" y="20" width="2" height="1" fill="#C8A2FF"></rect>
  <rect x="19" y="20" width="2" height="1" fill="#E0CCFF"></rect>
  <rect x="21" y="20" width="1" height="1" fill="#C8A2FF"></rect>
  <rect x="22" y="20" width="1" height="1" fill="#9C91B6"></rect>
  <rect x="23" y="20" width="1" height="1" fill="#C8A2FF"></rect>
  <rect x="24" y="20" width="1" height="1" fill="#B57BFF"></rect>
  <rect x="9" y="21" width="1" height="1" fill="#9C91B6"></rect>
  <rect x="10" y="21" width="3" height="1" fill="#C8A2FF"></rect>
  <rect x="13" y="21" width="2" height="1" fill="#B57BFF"></rect>
  <rect x="15" y="21" width="1" height="1" fill="#9C91B6"></rect>
  <rect x="16" y="21" width="1" height="1" fill="#C8A2FF"></rect>
  <rect x="17" y="21" width="2" height="1" fill="#B57BFF"></rect>
  <rect x="19" y="21" width="2" height="1" fill="#C8A2FF"></rect>
  <rect x="21" y="21" width="1" height="1" fill="#9C91B6"></rect>
  <rect x="22" y="21" width="1" height="1" fill="#C8A2FF"></rect>
  <rect x="23" y="21" width="1" height="1" fill="#B57BFF"></rect>
  <rect x="8" y="22" width="2" height="1" fill="#B57BFF"></rect>
  <rect x="10" y="22" width="1" height="1" fill="#C8A2FF"></rect>
  <rect x="11" y="22" width="1" height="1" fill="#9C91B6"></rect>
  <rect x="12" y="22" width="7" height="1" fill="#B57BFF"></rect>
  <rect x="19" y="22" width="1" height="1" fill="#C8A2FF"></rect>
  <rect x="20" y="22" width="1" height="1" fill="#9C91B6"></rect>
  <rect x="21" y="22" width="2" height="1" fill="#C8A2FF"></rect>
  <rect x="23" y="22" width="2" height="1" fill="#B57BFF"></rect>
  <rect x="6" y="23" width="1" height="1" fill="#C8A2FF"></rect>
  <rect x="9" y="23" width="1" height="1" fill="#B57BFF"></rect>
  <rect x="11" y="23" width="1" height="1" fill="#B57BFF"></rect>
  <rect x="13" y="23" width="1" height="1" fill="#B57BFF"></rect>
  <rect x="15" y="23" width="1" height="1" fill="#B57BFF"></rect>
  <rect x="17" y="23" width="1" height="1" fill="#B57BFF"></rect>
  <rect x="19" y="23" width="5" height="1" fill="#B57BFF"></rect>
  <rect x="20" y="24" width="1" height="1" fill="#B57BFF"></rect>
  <rect x="22" y="24" width="1" height="1" fill="#B57BFF"></rect>
  <rect x="25" y="24" width="1" height="1" fill="#C8A2FF"></rect>
  <rect x="9" y="25" width="1" height="1" fill="#C8A2FF"></rect>
  <rect x="19" y="26" width="1" height="1" fill="#C8A2FF"></rect>
  <rect x="14" y="27" width="1" height="1" fill="#C8A2FF"></rect>
  <rect x="8" y="28" width="1" height="1" fill="#B57BFF"></rect>
  <rect x="23" y="28" width="1" height="1" fill="#C8A2FF"></rect>
  <rect x="16" y="29" width="1" height="1" fill="#C8A2FF"></rect>
  <rect x="26" y="29" width="1" height="1" fill="#B57BFF"></rect>
  <rect x="11" y="30" width="1" height="1" fill="#C8A2FF"></rect>
  <rect x="21" y="30" width="1" height="1" fill="#B57BFF"></rect>
  <rect x="15" y="31" width="1" height="1" fill="#B57BFF"></rect></svg><text x="690" y="289" text-anchor="middle" font-family="ui-monospace,Menlo,Consolas,monospace" font-size="17" fill="#E9E6F1">TARS</text><svg x="791" y="141" width="118" height="118" viewBox="0 0 32 32"><title id="ttl">ROCKY — prumo com nível — mascote NUD, estado noite</title>
  <rect x="16" y="0" width="1" height="1" fill="#9C91B6"></rect>
  <rect x="16" y="1" width="1" height="1" fill="#9C91B6"></rect>
  <rect x="16" y="2" width="1" height="1" fill="#9C91B6"></rect>
  <rect x="16" y="3" width="1" height="1" fill="#9C91B6"></rect>
  <rect x="16" y="4" width="1" height="1" fill="#9C91B6"></rect>
  <rect x="16" y="5" width="1" height="1" fill="#9C91B6"></rect>
  <rect x="16" y="6" width="1" height="1" fill="#9C91B6"></rect>
  <rect x="15" y="7" width="2" height="1" fill="#9C91B6"></rect>
  <rect x="14" y="8" width="5" height="1" fill="#B6B0C8"></rect>
  <rect x="12" y="9" width="1" height="1" fill="#B6B0C8"></rect>
  <rect x="13" y="9" width="7" height="1" fill="#D2CEDF"></rect>
  <rect x="20" y="9" width="1" height="1" fill="#B6B0C8"></rect>
  <rect x="11" y="10" width="1" height="1" fill="#B6B0C8"></rect>
  <rect x="12" y="10" width="9" height="1" fill="#D2CEDF"></rect>
  <rect x="21" y="10" width="1" height="1" fill="#B6B0C8"></rect>
  <rect x="10" y="11" width="2" height="1" fill="#B6B0C8"></rect>
  <rect x="12" y="11" width="9" height="1" fill="#D2CEDF"></rect>
  <rect x="21" y="11" width="2" height="1" fill="#B6B0C8"></rect>
  <rect x="10" y="12" width="11" height="1" fill="#D2CEDF"></rect>
  <rect x="21" y="12" width="1" height="1" fill="#B6B0C8"></rect>
  <rect x="22" y="12" width="1" height="1" fill="#A7A0BA"></rect>
  <rect x="10" y="13" width="11" height="1" fill="#D2CEDF"></rect>
  <rect x="21" y="13" width="1" height="1" fill="#B6B0C8"></rect>
  <rect x="22" y="13" width="1" height="1" fill="#A7A0BA"></rect>
  <rect x="11" y="14" width="9" height="1" fill="#D2CEDF"></rect>
  <rect x="20" y="14" width="1" height="1" fill="#B6B0C8"></rect>
  <rect x="21" y="14" width="1" height="1" fill="#A7A0BA"></rect>
  <rect x="11" y="15" width="2" height="1" fill="#06050B"></rect>
  <rect x="13" y="15" width="1" height="1" fill="#E9E6F1"></rect>
  <rect x="14" y="15" width="1" height="1" fill="#D97757"></rect>
  <rect x="15" y="15" width="7" height="1" fill="#06050B"></rect>
  <rect x="11" y="16" width="2" height="1" fill="#06050B"></rect>
  <rect x="13" y="16" width="2" height="1" fill="#FF8A5C"></rect>
  <rect x="15" y="16" width="7" height="1" fill="#06050B"></rect>
  <rect x="12" y="17" width="5" height="1" fill="#06050B"></rect>
  <rect x="17" y="17" width="1" height="1" fill="#9C91B6"></rect>
  <rect x="18" y="17" width="1" height="1" fill="#06050B"></rect>
  <rect x="19" y="17" width="1" height="1" fill="#9C91B6"></rect>
  <rect x="20" y="17" width="1" height="1" fill="#06050B"></rect>
  <rect x="12" y="18" width="2" height="1" fill="#D2CEDF"></rect>
  <rect x="14" y="18" width="6" height="1" fill="#B6B0C8"></rect>
  <rect x="20" y="18" width="1" height="1" fill="#A7A0BA"></rect>
  <rect x="12" y="19" width="2" height="1" fill="#D2CEDF"></rect>
  <rect x="14" y="19" width="6" height="1" fill="#B6B0C8"></rect>
  <rect x="20" y="19" width="1" height="1" fill="#A7A0BA"></rect>
  <rect x="13" y="20" width="2" height="1" fill="#D2CEDF"></rect>
  <rect x="15" y="20" width="4" height="1" fill="#B6B0C8"></rect>
  <rect x="19" y="20" width="1" height="1" fill="#A7A0BA"></rect>
  <rect x="13" y="21" width="2" height="1" fill="#D2CEDF"></rect>
  <rect x="15" y="21" width="4" height="1" fill="#B6B0C8"></rect>
  <rect x="19" y="21" width="1" height="1" fill="#A7A0BA"></rect>
  <rect x="14" y="22" width="2" height="1" fill="#D2CEDF"></rect>
  <rect x="16" y="22" width="2" height="1" fill="#B6B0C8"></rect>
  <rect x="18" y="22" width="1" height="1" fill="#A7A0BA"></rect>
  <rect x="14" y="23" width="2" height="1" fill="#D2CEDF"></rect>
  <rect x="16" y="23" width="2" height="1" fill="#B6B0C8"></rect>
  <rect x="18" y="23" width="1" height="1" fill="#A7A0BA"></rect>
  <rect x="14" y="24" width="2" height="1" fill="#D2CEDF"></rect>
  <rect x="16" y="24" width="2" height="1" fill="#B6B0C8"></rect>
  <rect x="18" y="24" width="1" height="1" fill="#A7A0BA"></rect>
  <rect x="15" y="25" width="2" height="1" fill="#D2CEDF"></rect>
  <rect x="17" y="25" width="1" height="1" fill="#A7A0BA"></rect>
  <rect x="15" y="26" width="2" height="1" fill="#D2CEDF"></rect>
  <rect x="17" y="26" width="1" height="1" fill="#A7A0BA"></rect>
  <rect x="15" y="27" width="2" height="1" fill="#E0CCFF"></rect>
  <rect x="16" y="28" width="1" height="1" fill="#E0CCFF"></rect>
  <rect x="16" y="29" width="1" height="1" fill="#E0CCFF"></rect></svg><text x="850" y="289" text-anchor="middle" font-family="ui-monospace,Menlo,Consolas,monospace" font-size="17" fill="#E9E6F1">ROCKY</text><svg x="952" y="141" width="118" height="118" viewBox="0 0 32 32"><title id="ttl">CASE — vaga-lume — mascote NUD, estado noite</title>
  <rect x="11" y="3" width="1" height="1" fill="#9C91B6"></rect>
  <rect x="21" y="3" width="1" height="1" fill="#9C91B6"></rect>
  <rect x="4" y="4" width="1" height="1" fill="#C8A2FF"></rect>
  <rect x="12" y="4" width="1" height="1" fill="#9C91B6"></rect>
  <rect x="20" y="4" width="1" height="1" fill="#9C91B6"></rect>
  <rect x="28" y="4" width="1" height="1" fill="#C8A2FF"></rect>
  <rect x="2" y="5" width="2" height="1" fill="#E0CCFF"></rect>
  <rect x="5" y="5" width="1" height="1" fill="#C8A2FF"></rect>
  <rect x="13" y="5" width="1" height="1" fill="#9C91B6"></rect>
  <rect x="19" y="5" width="1" height="1" fill="#9C91B6"></rect>
  <rect x="27" y="5" width="1" height="1" fill="#C8A2FF"></rect>
  <rect x="29" y="5" width="2" height="1" fill="#E0CCFF"></rect>
  <rect x="2" y="6" width="3" height="1" fill="#E0CCFF"></rect>
  <rect x="6" y="6" width="1" height="1" fill="#C8A2FF"></rect>
  <rect x="14" y="6" width="1" height="1" fill="#9C91B6"></rect>
  <rect x="15" y="6" width="3" height="1" fill="#06050B"></rect>
  <rect x="18" y="6" width="1" height="1" fill="#9C91B6"></rect>
  <rect x="26" y="6" width="1" height="1" fill="#C8A2FF"></rect>
  <rect x="28" y="6" width="3" height="1" fill="#E0CCFF"></rect>
  <rect x="1" y="7" width="1" height="1" fill="#C8A2FF"></rect>
  <rect x="3" y="7" width="3" height="1" fill="#E0CCFF"></rect>
  <rect x="7" y="7" width="1" height="1" fill="#C8A2FF"></rect>
  <rect x="14" y="7" width="5" height="1" fill="#06050B"></rect>
  <rect x="25" y="7" width="1" height="1" fill="#C8A2FF"></rect>
  <rect x="26" y="7" width="4" height="1" fill="#E0CCFF"></rect>
  <rect x="31" y="7" width="1" height="1" fill="#C8A2FF"></rect>
  <rect x="2" y="8" width="1" height="1" fill="#C8A2FF"></rect>
  <rect x="4" y="8" width="3" height="1" fill="#E0CCFF"></rect>
  <rect x="8" y="8" width="1" height="1" fill="#C8A2FF"></rect>
  <rect x="13" y="8" width="1" height="1" fill="#9C91B6"></rect>
  <rect x="14" y="8" width="1" height="1" fill="#E9E6F1"></rect>
  <rect x="15" y="8" width="3" height="1" fill="#06050B"></rect>
  <rect x="18" y="8" width="1" height="1" fill="#E9E6F1"></rect>
  <rect x="19" y="8" width="1" height="1" fill="#9C91B6"></rect>
  <rect x="24" y="8" width="1" height="1" fill="#C8A2FF"></rect>
  <rect x="25" y="8" width="4" height="1" fill="#E0CCFF"></rect>
  <rect x="30" y="8" width="1" height="1" fill="#C8A2FF"></rect>
  <rect x="3" y="9" width="1" height="1" fill="#C8A2FF"></rect>
  <rect x="5" y="9" width="3" height="1" fill="#E0CCFF"></rect>
  <rect x="9" y="9" width="1" height="1" fill="#C8A2FF"></rect>
  <rect x="13" y="9" width="1" height="1" fill="#06050B"></rect>
  <rect x="14" y="9" width="1" height="1" fill="#E9E6F1"></rect>
  <rect x="15" y="9" width="3" height="1" fill="#06050B"></rect>
  <rect x="18" y="9" width="1" height="1" fill="#E9E6F1"></rect>
  <rect x="19" y="9" width="1" height="1" fill="#06050B"></rect>
  <rect x="23" y="9" width="1" height="1" fill="#C8A2FF"></rect>
  <rect x="24" y="9" width="4" height="1" fill="#E0CCFF"></rect>
  <rect x="29" y="9" width="1" height="1" fill="#C8A2FF"></rect>
  <rect x="4" y="10" width="1" height="1" fill="#C8A2FF"></rect>
  <rect x="6" y="10" width="4" height="1" fill="#E0CCFF"></rect>
  <rect x="10" y="10" width="1" height="1" fill="#C8A2FF"></rect>
  <rect x="14" y="10" width="5" height="1" fill="#06050B"></rect>
  <rect x="22" y="10" width="1" height="1" fill="#C8A2FF"></rect>
  <rect x="23" y="10" width="3" height="1" fill="#E0CCFF"></rect>
  <rect x="26" y="10" width="1" height="1" fill="#C8A2FF"></rect>
  <rect x="28" y="10" width="1" height="1" fill="#C8A2FF"></rect>
  <rect x="5" y="11" width="1" height="1" fill="#C8A2FF"></rect>
  <rect x="7" y="11" width="4" height="1" fill="#E0CCFF"></rect>
  <rect x="11" y="11" width="1" height="1" fill="#C8A2FF"></rect>
  <rect x="15" y="11" width="3" height="1" fill="#06050B"></rect>
  <rect x="21" y="11" width="1" height="1" fill="#C8A2FF"></rect>
  <rect x="22" y="11" width="3" height="1" fill="#E0CCFF"></rect>
  <rect x="25" y="11" width="1" height="1" fill="#C8A2FF"></rect>
  <rect x="27" y="11" width="1" height="1" fill="#C8A2FF"></rect>
  <rect x="8" y="12" width="4" height="1" fill="#E0CCFF"></rect>
  <rect x="12" y="12" width="1" height="1" fill="#C8A2FF"></rect>
  <rect x="13" y="12" width="1" height="1" fill="#D2CEDF"></rect>
  <rect x="14" y="12" width="5" height="1" fill="#B6B0C8"></rect>
  <rect x="19" y="12" width="1" height="1" fill="#A7A0BA"></rect>
  <rect x="20" y="12" width="1" height="1" fill="#C8A2FF"></rect>
  <rect x="21" y="12" width="3" height="1" fill="#E0CCFF"></rect>
  <rect x="24" y="12" width="1" height="1" fill="#C8A2FF"></rect>
  <rect x="9" y="13" width="1" height="1" fill="#C8A2FF"></rect>
  <rect x="10" y="13" width="3" height="1" fill="#E0CCFF"></rect>
  <rect x="13" y="13" width="1" height="1" fill="#D2CEDF"></rect>
  <rect x="14" y="13" width="2" height="1" fill="#B6B0C8"></rect>
  <rect x="16" y="13" width="1" height="1" fill="#9C91B6"></rect>
  <rect x="17" y="13" width="2" height="1" fill="#B6B0C8"></rect>
  <rect x="19" y="13" width="1" height="1" fill="#A7A0BA"></rect>
  <rect x="20" y="13" width="3" height="1" fill="#E0CCFF"></rect>
  <rect x="23" y="13" width="1" height="1" fill="#C8A2FF"></rect>
  <rect x="10" y="14" width="1" height="1" fill="#C8A2FF"></rect>
  <rect x="11" y="14" width="2" height="1" fill="#E0CCFF"></rect>
  <rect x="13" y="14" width="1" height="1" fill="#D2CEDF"></rect>
  <rect x="14" y="14" width="5" height="1" fill="#B6B0C8"></rect>
  <rect x="19" y="14" width="1" height="1" fill="#A7A0BA"></rect>
  <rect x="20" y="14" width="1" height="1" fill="#B6B0C8"></rect>
  <rect x="21" y="14" width="1" height="1" fill="#E0CCFF"></rect>
  <rect x="22" y="14" width="1" height="1" fill="#C8A2FF"></rect>
  <rect x="11" y="15" width="1" height="1" fill="#C8A2FF"></rect>
  <rect x="13" y="15" width="1" height="1" fill="#D2CEDF"></rect>
  <rect x="14" y="15" width="2" height="1" fill="#B6B0C8"></rect>
  <rect x="16" y="15" width="1" height="1" fill="#9C91B6"></rect>
  <rect x="17" y="15" width="2" height="1" fill="#B6B0C8"></rect>
  <rect x="19" y="15" width="1" height="1" fill="#A7A0BA"></rect>
  <rect x="20" y="15" width="1" height="1" fill="#B6B0C8"></rect>
  <rect x="21" y="15" width="1" height="1" fill="#C8A2FF"></rect>
  <rect x="12" y="16" width="1" height="1" fill="#06050B"></rect>
  <rect x="13" y="16" width="1" height="1" fill="#D2CEDF"></rect>
  <rect x="14" y="16" width="5" height="1" fill="#B6B0C8"></rect>
  <rect x="19" y="16" width="1" height="1" fill="#A7A0BA"></rect>
  <rect x="20" y="16" width="1" height="1" fill="#B6B0C8"></rect>
  <rect x="11" y="17" width="2" height="1" fill="#06050B"></rect>
  <rect x="13" y="17" width="1" height="1" fill="#D2CEDF"></rect>
  <rect x="14" y="17" width="5" height="1" fill="#B6B0C8"></rect>
  <rect x="19" y="17" width="1" height="1" fill="#A7A0BA"></rect>
  <rect x="20" y="17" width="1" height="1" fill="#B6B0C8"></rect>
  <rect x="21" y="17" width="1" height="1" fill="#06050B"></rect>
  <rect x="10" y="18" width="1" height="1" fill="#06050B"></rect>
  <rect x="12" y="18" width="1" height="1" fill="#06050B"></rect>
  <rect x="13" y="18" width="7" height="1" fill="#A7A0BA"></rect>
  <rect x="21" y="18" width="2" height="1" fill="#06050B"></rect>
  <rect x="9" y="19" width="1" height="1" fill="#06050B"></rect>
  <rect x="11" y="19" width="1" height="1" fill="#06050B"></rect>
  <rect x="13" y="19" width="7" height="1" fill="#06050B"></rect>
  <rect x="21" y="19" width="1" height="1" fill="#06050B"></rect>
  <rect x="23" y="19" width="1" height="1" fill="#06050B"></rect>
  <rect x="8" y="20" width="1" height="1" fill="#06050B"></rect>
  <rect x="11" y="20" width="2" height="1" fill="#06050B"></rect>
  <rect x="13" y="20" width="7" height="1" fill="#A7A0BA"></rect>
  <rect x="20" y="20" width="1" height="1" fill="#06050B"></rect>
  <rect x="22" y="20" width="1" height="1" fill="#06050B"></rect>
  <rect x="24" y="20" width="1" height="1" fill="#06050B"></rect>
  <rect x="10" y="21" width="1" height="1" fill="#06050B"></rect>
  <rect x="12" y="21" width="1" height="1" fill="#06050B"></rect>
  <rect x="14" y="21" width="5" height="1" fill="#06050B"></rect>
  <rect x="20" y="21" width="1" height="1" fill="#06050B"></rect>
  <rect x="22" y="21" width="1" height="1" fill="#06050B"></rect>
  <rect x="10" y="22" width="1" height="1" fill="#06050B"></rect>
  <rect x="12" y="22" width="1" height="1" fill="#06050B"></rect>
  <rect x="14" y="22" width="5" height="1" fill="#A7A0BA"></rect>
  <rect x="20" y="22" width="1" height="1" fill="#06050B"></rect>
  <rect x="23" y="22" width="1" height="1" fill="#06050B"></rect>
  <rect x="9" y="23" width="1" height="1" fill="#06050B"></rect>
  <rect x="12" y="23" width="1" height="1" fill="#06050B"></rect>
  <rect x="14" y="23" width="5" height="1" fill="#FF8A5C"></rect>
  <rect x="20" y="23" width="1" height="1" fill="#06050B"></rect>
  <rect x="23" y="23" width="1" height="1" fill="#06050B"></rect>
  <rect x="11" y="24" width="1" height="1" fill="#06050B"></rect>
  <rect x="14" y="24" width="5" height="1" fill="#FF8A5C"></rect>
  <rect x="21" y="24" width="1" height="1" fill="#06050B"></rect>
  <rect x="11" y="25" width="1" height="1" fill="#06050B"></rect>
  <rect x="14" y="25" width="1" height="1" fill="#FF8A5C"></rect>
  <rect x="15" y="25" width="2" height="1" fill="#E9E6F1"></rect>
  <rect x="17" y="25" width="2" height="1" fill="#FF8A5C"></rect>
  <rect x="21" y="25" width="1" height="1" fill="#06050B"></rect>
  <rect x="15" y="26" width="1" height="1" fill="#FF8A5C"></rect>
  <rect x="16" y="26" width="1" height="1" fill="#E9E6F1"></rect>
  <rect x="17" y="26" width="1" height="1" fill="#FF8A5C"></rect></svg><text x="1010" y="289" text-anchor="middle" font-family="ui-monospace,Menlo,Consolas,monospace" font-size="17" fill="#E9E6F1">CASE</text><svg x="1112" y="161" width="118" height="79" viewBox="0 0 24 16"><title id="t">Marcador vivo NUD — feliz</title>
  <rect x="2" y="4" width="5" height="1" fill="#B57BFF"></rect>
  <rect x="17" y="4" width="5" height="1" fill="#B57BFF"></rect>
  <rect x="2" y="5" width="5" height="1" fill="#B57BFF"></rect>
  <rect x="17" y="5" width="5" height="1" fill="#B57BFF"></rect>
  <rect x="2" y="6" width="2" height="1" fill="#B57BFF"></rect>
  <rect x="9" y="6" width="6" height="1" fill="#FF8A5C"></rect>
  <rect x="20" y="6" width="2" height="1" fill="#B57BFF"></rect>
  <rect x="2" y="7" width="2" height="1" fill="#B57BFF"></rect>
  <rect x="9" y="7" width="6" height="1" fill="#FF8A5C"></rect>
  <rect x="20" y="7" width="2" height="1" fill="#B57BFF"></rect>
  <rect x="2" y="8" width="2" height="1" fill="#B57BFF"></rect>
  <rect x="9" y="8" width="6" height="1" fill="#FF8A5C"></rect>
  <rect x="20" y="8" width="2" height="1" fill="#B57BFF"></rect>
  <rect x="2" y="9" width="2" height="1" fill="#B57BFF"></rect>
  <rect x="20" y="9" width="2" height="1" fill="#B57BFF"></rect>
  <rect x="2" y="10" width="5" height="1" fill="#B57BFF"></rect>
  <rect x="17" y="10" width="5" height="1" fill="#B57BFF"></rect>
  <rect x="2" y="11" width="5" height="1" fill="#B57BFF"></rect>
  <rect x="17" y="11" width="5" height="1" fill="#B57BFF"></rect></svg><text x="1171" y="269" text-anchor="middle" font-family="ui-monospace,Menlo,Consolas,monospace" font-size="17" fill="#E9E6F1">[·]</text>
</svg>